<mxfile host="app.diagrams.net" modified="2023-11-23T00:54:21.644Z" agent="Mozilla/5.0 (Windows NT 10.0; Win64; x64) AppleWebKit/537.36 (KHTML, like Gecko) Chrome/119.0.0.0 Safari/537.36 Edg/119.0.0.0" etag="MPUib44JerLZh15fKOVg" version="22.1.3" type="github">
  <diagram name="Page-1" id="58cdce13-f638-feb5-8d6f-7d28b1aa9fa0">
    <mxGraphModel dx="1664" dy="970" grid="1" gridSize="10" guides="1" tooltips="1" connect="1" arrows="1" fold="1" page="1" pageScale="1" pageWidth="1100" pageHeight="850" background="none" math="0" shadow="0">
      <root>
        <mxCell id="0" />
        <mxCell id="1" parent="0" />
        <mxCell id="382b91b5511bd0f7-1" value="" style="ellipse;html=1;shape=startState;fillColor=#000000;strokeColor=#ff0000;rounded=1;shadow=0;comic=0;labelBackgroundColor=none;fontFamily=Verdana;fontSize=12;fontColor=#000000;align=center;direction=south;" parent="1" vertex="1">
          <mxGeometry x="310" y="125" width="30" height="30" as="geometry" />
        </mxCell>
        <mxCell id="382b91b5511bd0f7-6" value="Idle" style="rounded=1;whiteSpace=wrap;html=1;arcSize=24;fillColor=#ffffc0;strokeColor=#ff0000;shadow=0;comic=0;labelBackgroundColor=none;fontFamily=Verdana;fontSize=12;fontColor=#000000;align=center;" parent="1" vertex="1">
          <mxGeometry x="265" y="355" width="120" height="60" as="geometry" />
        </mxCell>
        <mxCell id="2a3bc250acf0617d-8" value="&lt;b&gt;State Machine &lt;/b&gt;Room {protocol}" style="shape=umlFrame;whiteSpace=wrap;html=1;rounded=1;shadow=0;comic=0;labelBackgroundColor=none;strokeWidth=1;fontFamily=Verdana;fontSize=12;align=center;width=220;height=30;" parent="1" vertex="1">
          <mxGeometry x="20" y="60" width="1050" height="745" as="geometry" />
        </mxCell>
        <mxCell id="2gCulrt-LbQDcTI6St70-3" value="Ready" style="rounded=1;whiteSpace=wrap;html=1;arcSize=24;fillColor=#ffffc0;strokeColor=#ff0000;shadow=0;comic=0;labelBackgroundColor=none;fontFamily=Verdana;fontSize=12;fontColor=#000000;align=center;" vertex="1" parent="1">
          <mxGeometry x="265" y="475" width="120" height="60" as="geometry" />
        </mxCell>
        <mxCell id="2gCulrt-LbQDcTI6St70-4" style="edgeStyle=elbowEdgeStyle;html=1;labelBackgroundColor=none;endArrow=open;endSize=8;strokeColor=#ff0000;fontFamily=Verdana;fontSize=12;align=left;exitX=0.5;exitY=1;exitDx=0;exitDy=0;entryX=0.5;entryY=0;entryDx=0;entryDy=0;elbow=vertical;" edge="1" parent="1" source="382b91b5511bd0f7-6" target="2gCulrt-LbQDcTI6St70-3">
          <mxGeometry relative="1" as="geometry">
            <mxPoint x="235" y="835" as="sourcePoint" />
            <mxPoint x="345" y="835" as="targetPoint" />
          </mxGeometry>
        </mxCell>
        <mxCell id="2gCulrt-LbQDcTI6St70-6" value="[isRoomFull] onAssignPlayer/ [isRoomFull]" style="edgeLabel;html=1;align=center;verticalAlign=middle;resizable=0;points=[];" vertex="1" connectable="0" parent="2gCulrt-LbQDcTI6St70-4">
          <mxGeometry x="-0.2943" y="1" relative="1" as="geometry">
            <mxPoint as="offset" />
          </mxGeometry>
        </mxCell>
        <mxCell id="2gCulrt-LbQDcTI6St70-7" value="Play" style="rounded=1;whiteSpace=wrap;html=1;arcSize=24;fillColor=#ffffc0;strokeColor=#ff0000;shadow=0;comic=0;labelBackgroundColor=none;fontFamily=Verdana;fontSize=12;fontColor=#000000;align=center;" vertex="1" parent="1">
          <mxGeometry x="555" y="475" width="120" height="60" as="geometry" />
        </mxCell>
        <mxCell id="2gCulrt-LbQDcTI6St70-8" style="edgeStyle=elbowEdgeStyle;html=1;labelBackgroundColor=none;endArrow=open;endSize=8;strokeColor=#ff0000;fontFamily=Verdana;fontSize=12;align=left;exitX=1;exitY=0.5;exitDx=0;exitDy=0;entryX=0;entryY=0.5;entryDx=0;entryDy=0;" edge="1" parent="1" source="2gCulrt-LbQDcTI6St70-3" target="2gCulrt-LbQDcTI6St70-7">
          <mxGeometry relative="1" as="geometry">
            <mxPoint x="235" y="835" as="sourcePoint" />
            <mxPoint x="344.9999999999998" y="835" as="targetPoint" />
          </mxGeometry>
        </mxCell>
        <mxCell id="2gCulrt-LbQDcTI6St70-9" value="[isRoomReady] onPlay/" style="edgeLabel;html=1;align=center;verticalAlign=middle;resizable=0;points=[];" vertex="1" connectable="0" parent="2gCulrt-LbQDcTI6St70-8">
          <mxGeometry x="-0.1855" y="-1" relative="1" as="geometry">
            <mxPoint x="11" y="-1" as="offset" />
          </mxGeometry>
        </mxCell>
        <mxCell id="2gCulrt-LbQDcTI6St70-10" style="edgeStyle=elbowEdgeStyle;html=1;labelBackgroundColor=none;endArrow=open;endSize=8;strokeColor=#ff0000;fontFamily=Verdana;fontSize=12;align=left;entryX=1;entryY=0.5;entryDx=0;entryDy=0;exitX=0.5;exitY=1;exitDx=0;exitDy=0;" edge="1" parent="1" source="2gCulrt-LbQDcTI6St70-7" target="2gCulrt-LbQDcTI6St70-13">
          <mxGeometry relative="1" as="geometry">
            <mxPoint x="615" y="475" as="sourcePoint" />
            <mxPoint x="545" y="375" as="targetPoint" />
            <Array as="points">
              <mxPoint x="615" y="585" />
            </Array>
          </mxGeometry>
        </mxCell>
        <mxCell id="2gCulrt-LbQDcTI6St70-11" value="[isEndGame] onEndGame/" style="edgeLabel;html=1;align=center;verticalAlign=middle;resizable=0;points=[];" vertex="1" connectable="0" parent="2gCulrt-LbQDcTI6St70-10">
          <mxGeometry x="0.3393" relative="1" as="geometry">
            <mxPoint x="-11" as="offset" />
          </mxGeometry>
        </mxCell>
        <mxCell id="2gCulrt-LbQDcTI6St70-13" value="isRoomFull" style="rhombus;whiteSpace=wrap;html=1;fillColor=#fff2cc;strokeColor=#FF4124;" vertex="1" parent="1">
          <mxGeometry x="285" y="580" width="80" height="80" as="geometry" />
        </mxCell>
        <mxCell id="2gCulrt-LbQDcTI6St70-14" style="edgeStyle=elbowEdgeStyle;html=1;labelBackgroundColor=none;endArrow=open;endSize=8;strokeColor=#ff0000;fontFamily=Verdana;fontSize=12;align=left;entryX=0;entryY=0.5;entryDx=0;entryDy=0;exitX=0;exitY=0.5;exitDx=0;exitDy=0;elbow=vertical;" edge="1" parent="1" source="2gCulrt-LbQDcTI6St70-13" target="2gCulrt-LbQDcTI6St70-3">
          <mxGeometry relative="1" as="geometry">
            <mxPoint x="235" y="835" as="sourcePoint" />
            <mxPoint x="344.9999999999998" y="835" as="targetPoint" />
            <Array as="points">
              <mxPoint x="205" y="565" />
            </Array>
          </mxGeometry>
        </mxCell>
        <mxCell id="2gCulrt-LbQDcTI6St70-15" value="Yes" style="edgeLabel;html=1;align=center;verticalAlign=middle;resizable=0;points=[];" vertex="1" connectable="0" parent="2gCulrt-LbQDcTI6St70-14">
          <mxGeometry x="-0.0588" y="4" relative="1" as="geometry">
            <mxPoint y="-5" as="offset" />
          </mxGeometry>
        </mxCell>
        <mxCell id="2gCulrt-LbQDcTI6St70-20" value="isCreated&lt;br&gt;ByUser" style="rhombus;whiteSpace=wrap;html=1;fillColor=#fff2cc;strokeColor=#FF4124;" vertex="1" parent="1">
          <mxGeometry x="85" y="475" width="80" height="80" as="geometry" />
        </mxCell>
        <mxCell id="2gCulrt-LbQDcTI6St70-21" style="edgeStyle=elbowEdgeStyle;html=1;labelBackgroundColor=none;endArrow=open;endSize=8;strokeColor=#ff0000;fontFamily=Verdana;fontSize=12;align=left;exitX=0.5;exitY=1;exitDx=0;exitDy=0;entryX=0.5;entryY=1;entryDx=0;entryDy=0;" edge="1" parent="1" source="2gCulrt-LbQDcTI6St70-13" target="2gCulrt-LbQDcTI6St70-20">
          <mxGeometry relative="1" as="geometry">
            <mxPoint x="235" y="835" as="sourcePoint" />
            <mxPoint x="344.9999999999998" y="835" as="targetPoint" />
            <Array as="points">
              <mxPoint x="145" y="685" />
            </Array>
          </mxGeometry>
        </mxCell>
        <mxCell id="2gCulrt-LbQDcTI6St70-22" value="No" style="edgeLabel;html=1;align=center;verticalAlign=middle;resizable=0;points=[];" vertex="1" connectable="0" parent="2gCulrt-LbQDcTI6St70-21">
          <mxGeometry x="0.5646" relative="1" as="geometry">
            <mxPoint as="offset" />
          </mxGeometry>
        </mxCell>
        <mxCell id="2gCulrt-LbQDcTI6St70-27" value="" style="ellipse;html=1;shape=endState;fillColor=#000000;strokeColor=#ff0000;rounded=1;shadow=0;comic=0;labelBackgroundColor=none;fontFamily=Verdana;fontSize=12;fontColor=#000000;align=center;" vertex="1" parent="1">
          <mxGeometry x="985" y="490" width="30" height="30" as="geometry" />
        </mxCell>
        <mxCell id="2gCulrt-LbQDcTI6St70-36" value="isCreated&lt;br&gt;ByUser" style="rhombus;whiteSpace=wrap;html=1;fillColor=#fff2cc;strokeColor=#FF4124;" vertex="1" parent="1">
          <mxGeometry x="285" y="207" width="80" height="80" as="geometry" />
        </mxCell>
        <mxCell id="2gCulrt-LbQDcTI6St70-37" style="edgeStyle=elbowEdgeStyle;html=1;labelBackgroundColor=none;endArrow=open;endSize=8;strokeColor=#ff0000;fontFamily=Verdana;fontSize=12;align=left;entryX=0.5;entryY=0;entryDx=0;entryDy=0;exitX=0;exitY=0.5;exitDx=0;exitDy=0;" edge="1" parent="1" source="382b91b5511bd0f7-6" target="2gCulrt-LbQDcTI6St70-20">
          <mxGeometry relative="1" as="geometry">
            <mxPoint x="625" y="545" as="sourcePoint" />
            <mxPoint x="375" y="630" as="targetPoint" />
            <Array as="points">
              <mxPoint x="125" y="415" />
            </Array>
          </mxGeometry>
        </mxCell>
        <mxCell id="2gCulrt-LbQDcTI6St70-38" value="Yes" style="edgeLabel;html=1;align=center;verticalAlign=middle;resizable=0;points=[];" vertex="1" connectable="0" parent="2gCulrt-LbQDcTI6St70-37">
          <mxGeometry x="0.3393" relative="1" as="geometry">
            <mxPoint y="36" as="offset" />
          </mxGeometry>
        </mxCell>
        <mxCell id="2gCulrt-LbQDcTI6St70-39" style="edgeStyle=elbowEdgeStyle;html=1;labelBackgroundColor=none;endArrow=open;endSize=8;strokeColor=#ff0000;fontFamily=Verdana;fontSize=12;align=left;entryX=0.5;entryY=0;entryDx=0;entryDy=0;exitX=0.5;exitY=1;exitDx=0;exitDy=0;elbow=vertical;" edge="1" parent="1" source="2gCulrt-LbQDcTI6St70-36" target="382b91b5511bd0f7-6">
          <mxGeometry relative="1" as="geometry">
            <mxPoint x="405" y="215" as="sourcePoint" />
            <mxPoint x="405" y="345" as="targetPoint" />
            <Array as="points" />
          </mxGeometry>
        </mxCell>
        <mxCell id="2gCulrt-LbQDcTI6St70-41" value="Yes" style="edgeLabel;html=1;align=center;verticalAlign=middle;resizable=0;points=[];" vertex="1" connectable="0" parent="2gCulrt-LbQDcTI6St70-39">
          <mxGeometry x="-0.165" y="3" relative="1" as="geometry">
            <mxPoint x="-3" y="8" as="offset" />
          </mxGeometry>
        </mxCell>
        <mxCell id="2gCulrt-LbQDcTI6St70-42" style="edgeStyle=elbowEdgeStyle;html=1;labelBackgroundColor=none;endArrow=open;endSize=8;strokeColor=#ff0000;fontFamily=Verdana;fontSize=12;align=left;entryX=0.455;entryY=0.048;entryDx=0;entryDy=0;exitX=1;exitY=0.5;exitDx=0;exitDy=0;elbow=vertical;entryPerimeter=0;" edge="1" parent="1" source="2gCulrt-LbQDcTI6St70-36" target="2gCulrt-LbQDcTI6St70-7">
          <mxGeometry relative="1" as="geometry">
            <mxPoint x="335" y="297" as="sourcePoint" />
            <mxPoint x="335" y="365" as="targetPoint" />
            <Array as="points">
              <mxPoint x="610" y="245" />
            </Array>
          </mxGeometry>
        </mxCell>
        <mxCell id="2gCulrt-LbQDcTI6St70-43" value="No" style="edgeLabel;html=1;align=center;verticalAlign=middle;resizable=0;points=[];" vertex="1" connectable="0" parent="2gCulrt-LbQDcTI6St70-42">
          <mxGeometry x="-0.165" y="3" relative="1" as="geometry">
            <mxPoint x="-98" y="5" as="offset" />
          </mxGeometry>
        </mxCell>
        <mxCell id="2gCulrt-LbQDcTI6St70-44" style="edgeStyle=elbowEdgeStyle;html=1;labelBackgroundColor=none;endArrow=open;endSize=8;strokeColor=#ff0000;fontFamily=Verdana;fontSize=12;align=left;elbow=vertical;exitX=1;exitY=0.5;exitDx=0;exitDy=0;entryX=0.5;entryY=0;entryDx=0;entryDy=0;" edge="1" parent="1" source="382b91b5511bd0f7-1" target="2gCulrt-LbQDcTI6St70-36">
          <mxGeometry relative="1" as="geometry">
            <mxPoint x="165" y="175" as="sourcePoint" />
            <mxPoint x="165" y="255" as="targetPoint" />
            <Array as="points" />
          </mxGeometry>
        </mxCell>
        <mxCell id="2gCulrt-LbQDcTI6St70-50" style="edgeStyle=elbowEdgeStyle;html=1;labelBackgroundColor=none;endArrow=open;endSize=8;strokeColor=#ff0000;fontFamily=Verdana;fontSize=12;align=left;exitX=0.5;exitY=1;exitDx=0;exitDy=0;entryX=0.5;entryY=1;entryDx=0;entryDy=0;" edge="1" parent="1" source="2gCulrt-LbQDcTI6St70-3" target="2gCulrt-LbQDcTI6St70-27">
          <mxGeometry relative="1" as="geometry">
            <mxPoint x="625" y="545" as="sourcePoint" />
            <mxPoint x="955" y="625" as="targetPoint" />
            <Array as="points">
              <mxPoint x="665" y="575" />
            </Array>
          </mxGeometry>
        </mxCell>
        <mxCell id="2gCulrt-LbQDcTI6St70-51" value="[isRoomOwner] onDestroy/" style="edgeLabel;html=1;align=center;verticalAlign=middle;resizable=0;points=[];" vertex="1" connectable="0" parent="2gCulrt-LbQDcTI6St70-50">
          <mxGeometry x="0.3393" relative="1" as="geometry">
            <mxPoint x="-55" as="offset" />
          </mxGeometry>
        </mxCell>
        <mxCell id="2gCulrt-LbQDcTI6St70-52" style="edgeStyle=elbowEdgeStyle;html=1;labelBackgroundColor=none;endArrow=open;endSize=8;strokeColor=#ff0000;fontFamily=Verdana;fontSize=12;align=left;exitX=1;exitY=0.5;exitDx=0;exitDy=0;entryX=0.5;entryY=0;entryDx=0;entryDy=0;" edge="1" parent="1" source="382b91b5511bd0f7-6" target="2gCulrt-LbQDcTI6St70-27">
          <mxGeometry relative="1" as="geometry">
            <mxPoint x="335" y="545" as="sourcePoint" />
            <mxPoint x="1010" y="530" as="targetPoint" />
            <Array as="points">
              <mxPoint x="995" y="385" />
            </Array>
          </mxGeometry>
        </mxCell>
        <mxCell id="2gCulrt-LbQDcTI6St70-53" value="[isRoomOwner] onDestroy/" style="edgeLabel;html=1;align=center;verticalAlign=middle;resizable=0;points=[];" vertex="1" connectable="0" parent="2gCulrt-LbQDcTI6St70-52">
          <mxGeometry x="0.3393" relative="1" as="geometry">
            <mxPoint x="-122" as="offset" />
          </mxGeometry>
        </mxCell>
        <mxCell id="2gCulrt-LbQDcTI6St70-54" style="edgeStyle=elbowEdgeStyle;html=1;labelBackgroundColor=none;endArrow=open;endSize=8;strokeColor=#ff0000;fontFamily=Verdana;fontSize=12;align=left;exitX=0;exitY=0.5;exitDx=0;exitDy=0;entryX=1;entryY=0.5;entryDx=0;entryDy=0;" edge="1" parent="1" source="2gCulrt-LbQDcTI6St70-20" target="2gCulrt-LbQDcTI6St70-27">
          <mxGeometry relative="1" as="geometry">
            <mxPoint x="65" y="725" as="sourcePoint" />
            <mxPoint x="1040" y="745" as="targetPoint" />
            <Array as="points">
              <mxPoint x="545" y="725" />
            </Array>
          </mxGeometry>
        </mxCell>
        <mxCell id="2gCulrt-LbQDcTI6St70-55" value="onDestroy/" style="edgeLabel;html=1;align=center;verticalAlign=middle;resizable=0;points=[];" vertex="1" connectable="0" parent="2gCulrt-LbQDcTI6St70-54">
          <mxGeometry x="0.3393" relative="1" as="geometry">
            <mxPoint x="-238" as="offset" />
          </mxGeometry>
        </mxCell>
      </root>
    </mxGraphModel>
  </diagram>
</mxfile>
